HIERARCHY
ROOT Hips
{
	OFFSET -3.958830 18.904000 13.208200
	CHANNELS 6 Xposition Yposition Zposition Zrotation Yrotation Xrotation 
	JOINT LHipJoint
	{
		OFFSET 0.000000 0.000000 0.000000
		CHANNELS 3 Zrotation Yrotation Xrotation
		JOINT LeftUpLeg
		{
			OFFSET 1.800000 -1.400000 0.085000
			CHANNELS 3 Zrotation Yrotation Xrotation
			JOINT LeftLeg
			{
				OFFSET 2.215000 -6.000000 0.000000
				CHANNELS 3 Zrotation Yrotation Xrotation
				JOINT LeftFoot
				{
					OFFSET 2.500000 -6.900000 0.000000
					CHANNELS 3 Zrotation Yrotation Xrotation
					JOINT LeftToeBase
					{
						OFFSET 0.200000 -0.500000 1.950000
						CHANNELS 3 Zrotation Yrotation Xrotation
						End Site
						{
							OFFSET 0.000000 0.000000 0.000000
						}
					}
				}
			}
		}
	}
	JOINT RHipJoint
	{
		OFFSET 0.000000 0.000000 0.000000
		CHANNELS 3 Zrotation Yrotation Xrotation
		JOINT RightUpLeg
		{
			OFFSET -1.800000 -1.400000 0.085000
			CHANNELS 3 Zrotation Yrotation Xrotation
			JOINT RightLeg
			{
				OFFSET -2.215000 -6.000000 0.000000
				CHANNELS 3 Zrotation Yrotation Xrotation
				JOINT RightFoot
				{
					OFFSET -2.500000 -6.900000 0.000000
					CHANNELS 3 Zrotation Yrotation Xrotation
					JOINT RightToeBase
					{
						OFFSET -0.200000 -0.500000 1.950000
						CHANNELS 3 Zrotation Yrotation Xrotation
						End Site
						{
							OFFSET 0.000000 0.000000 0.000000
						}
					}
				}
			}
		}
	}
	JOINT LowerBack
	{
		OFFSET 0.000000 0.000000 0.000000
		CHANNELS 3 Zrotation Yrotation Xrotation
		JOINT Spine
		{
			OFFSET -0.087000 1.940000 -0.288900
			CHANNELS 3 Zrotation Yrotation Xrotation
			JOINT Spine1
			{
				OFFSET 0.000000 1.950000 0.060000
				CHANNELS 3 Zrotation Yrotation Xrotation
				JOINT Neck
				{
					OFFSET 0.000000 0.000000 0.000000
					CHANNELS 3 Zrotation Yrotation Xrotation
					JOINT Neck1
					{
						OFFSET 0.000000 1.600000 0.340000
						CHANNELS 3 Zrotation Yrotation Xrotation
						JOINT Head
						{
							OFFSET 0.000000 1.667000 -0.240000
							CHANNELS 3 Zrotation Yrotation Xrotation
							End Site
							{
								OFFSET 0.000000 0.000000 0.000000
							}
						}
					}
				}
				JOINT LeftShoulder
				{
					OFFSET 0.000000 0.000000 0.000000
					CHANNELS 3 Zrotation Yrotation Xrotation
					JOINT LeftArm
					{
						OFFSET 2.700000 1.550000 -0.730000
						CHANNELS 3 Zrotation Yrotation Xrotation
						JOINT LeftForeArm
						{
							OFFSET 5.450000 0.000000 0.000000
							CHANNELS 3 Zrotation Yrotation Xrotation
							JOINT LeftHand
							{
								OFFSET 3.450000 0.000000 0.000000
								CHANNELS 3 Zrotation Yrotation Xrotation
								JOINT LeftHandIndex1
								{
									OFFSET 0.750000 0.000000 0.000000
									CHANNELS 3 Zrotation Yrotation Xrotation
									End Site
									{
										OFFSET 0.000000 0.000000 0.000000
									}
								}
							}
						}
					}
				}
				JOINT RightShoulder
				{
					OFFSET 0.000000 0.000000 0.000000
					CHANNELS 3 Zrotation Yrotation Xrotation
					JOINT RightArm
					{
						OFFSET -2.700000 1.550000 -0.730000
						CHANNELS 3 Zrotation Yrotation Xrotation
						JOINT RightForeArm
						{
							OFFSET -5.450000 0.000000 0.000000
							CHANNELS 3 Zrotation Yrotation Xrotation
							JOINT RightHand
							{
								OFFSET -3.450000 0.000000 0.000000
								CHANNELS 3 Zrotation Yrotation Xrotation
								JOINT RightHandIndex1
								{
									OFFSET -0.750000 0.000000 0.000000
									CHANNELS 3 Zrotation Yrotation Xrotation
									End Site
									{
										OFFSET 0.000000 0.000000 0.000000
									}
								}
							}
						}
					}
				}
			}
		}
	}
}
MOTION
Frames: 14
Frame Time: 0.016667
0.488960 17.293770 -2.881820 -3.058745 6.767785 2.250921 -15.315328 13.536211 3.740897 9.754108 -4.668877 -27.869700 -3.610827 8.498383 33.901272 -0.031185 5.842629 2.231845 0.301240 0.199750 0.312670 17.897286 -11.292356 2.173619 -16.480838 0.821894 -19.613075 2.778958 -5.537948 22.887062 -0.121238 -3.430785 3.029831 0.115580 -0.125860 0.014540 -2.994027 -2.004913 -7.865330 2.190063 2.042423 21.182800 0.783495 3.053186 6.225012 1.618280 1.199564 -9.550154 -3.121723 0.895072 65.469960 1.100240 0.579690 0.449630 -19.028634 -4.581962 1.928909 -37.743364 -0.615303 -6.645130 -58.274131 -28.293961 11.406069 -3.524132 3.253214 0.362290 -0.101840 0.171110 0.016620 16.709869 5.701941 4.735547 46.511298 -3.199769 -12.073938 46.952043 33.752882 8.598633 2.423608 -1.539270 -0.053150 0.113480 -0.075960 -0.159400 
0.470350 17.272980 -2.897060 -3.047246 6.510308 2.350731 -15.330297 13.525038 3.804117 10.120729 -4.754695 -28.269338 -4.052014 8.769568 34.240161 -0.011135 5.971961 2.185220 0.301660 0.202390 0.308690 17.887864 -11.227556 2.171059 -16.717582 0.846574 -19.755511 2.982104 -5.570130 22.764835 -0.117798 -3.425095 3.031817 0.117520 -0.122910 0.014740 -2.953373 -2.119605 -7.916214 2.123824 1.999734 21.804003 0.892538 3.058294 5.963419 1.565452 0.922759 -9.429931 -3.878438 1.335600 64.567867 1.050330 0.633370 0.120050 -19.555184 -4.546856 1.750308 -37.093065 -0.534450 -6.602607 -58.977442 -27.694790 11.241821 -3.524396 3.261813 0.358690 -0.100680 0.168360 0.018820 17.291898 5.866174 4.812516 45.410059 -3.790138 -12.212426 48.613475 34.663706 9.328400 2.416486 -1.561990 -0.052530 0.114270 -0.076060 -0.156790 
0.430330 17.231580 -2.922240 -2.887056 6.207606 2.474377 -15.367450 13.506009 3.931342 10.622237 -5.001417 -29.163787 -4.500632 9.159905 35.157752 0.023076 6.215593 2.095852 0.300790 0.203740 0.304110 17.862271 -11.118314 2.150881 -17.143793 0.857385 -19.939660 3.125266 -5.584865 22.590480 -0.113912 -3.411246 3.034593 0.118230 -0.120790 0.021450 -2.857585 -2.330287 -8.003457 1.754678 1.976173 23.028979 1.155206 3.081739 5.411441 1.527235 0.648207 -9.237340 -4.660865 1.723820 63.082069 0.763180 0.756330 -0.512670 -20.628432 -4.625945 1.481572 -35.887987 -0.293630 -6.597793 -60.130011 -26.907701 11.045471 -3.526580 3.275756 0.356580 -0.097320 0.168110 0.019620 18.395093 6.172850 4.957956 43.730925 -4.873909 -12.524343 50.748167 36.226398 10.450113 2.401115 -1.591816 -0.050240 0.112360 -0.073520 -0.154940 
0.373790 17.193250 -2.938570 -2.869141 5.457017 2.338114 -15.401468 13.524185 4.025304 11.503973 -5.038063 -29.735381 -4.879524 9.657479 36.269399 0.067107 6.510783 1.980736 0.314020 0.222340 0.310750 17.839259 -10.990963 2.151427 -17.428773 1.016071 -20.400819 3.602443 -5.816624 23.416857 -0.131027 -3.495612 2.995859 0.125720 -0.137570 0.023440 -2.760497 -2.590048 -8.090612 1.458816 1.923318 24.559928 1.483064 3.108901 4.708366 1.448740 0.122723 -9.102199 -6.012106 2.562519 61.985598 0.453360 1.115700 -1.331310 -21.831303 -4.595068 1.252371 -34.821482 0.339711 -6.764452 -60.755638 -26.238910 10.715842 -3.509226 3.290847 0.362720 -0.108040 0.179340 0.020970 19.698361 6.577511 5.132245 42.352149 -6.048631 -12.995402 52.496147 38.214434 11.706518 2.385895 -1.622886 -0.042830 0.105950 -0.081030 -0.156800 
0.317500 17.164940 -2.951040 -2.932402 4.695869 1.908416 -15.411654 13.582058 4.048761 12.106589 -4.973987 -29.806875 -4.802687 9.865671 37.073001 0.085777 6.673797 1.911538 0.350840 0.267750 0.340730 17.833160 -10.887908 2.183839 -17.613437 1.261451 -21.066996 4.235712 -6.228105 25.058152 -0.177730 -3.666529 2.919733 0.146420 -0.168780 0.021880 -2.723251 -2.830642 -8.151194 1.561354 1.530807 26.294069 1.572440 2.849758 4.060482 1.401366 -0.693968 -9.010142 -7.912700 3.690910 61.438086 0.135270 1.399480 -2.980550 -22.689351 -4.449032 1.130716 -34.472085 1.155397 -7.137728 -60.707825 -25.861808 10.280817 -3.476391 3.285060 0.385050 -0.136050 0.210620 0.025160 20.592066 7.057014 5.096245 40.932638 -6.051132 -12.955950 53.731899 38.798366 12.390266 2.382461 -1.630384 -0.031910 0.114690 -0.099870 -0.160410 
0.260100 17.146100 -2.950630 -2.945895 3.649353 1.387108 -15.413266 13.673757 4.000602 12.627277 -4.723975 -29.196762 -4.949815 10.022858 37.081612 0.077763 6.745181 1.883679 0.370340 0.288380 0.358260 17.834088 -10.796985 2.232548 -17.564731 1.586587 -21.951644 4.612783 -6.658072 27.251827 -0.220521 -3.904021 2.824679 0.163580 -0.179170 0.015430 -2.698386 -3.073812 -8.162297 1.622842 1.044953 27.515645 1.612464 2.442943 3.590712 1.257756 -1.656370 -8.733147 -10.242040 5.233585 61.113746 -0.292480 1.828110 -3.929660 -23.393882 -3.723656 0.765761 -34.310404 1.613698 -7.285156 -60.170228 -25.145383 9.658341 -3.464072 3.269301 0.401540 -0.149080 0.221340 0.027050 21.520498 6.922009 4.837298 40.133442 -5.975999 -12.972310 54.792996 39.814378 13.276940 2.372520 -1.638221 -0.037860 0.131640 -0.105310 -0.166910 
0.208980 17.148230 -2.939200 -2.790991 2.549539 0.675967 -15.396780 13.773693 3.889596 13.119253 -4.324700 -27.806790 -5.377072 10.183223 36.521582 0.050808 6.742655 1.868810 0.405720 0.328590 0.395470 17.844529 -10.770752 2.275317 -17.388492 1.850694 -22.602743 4.559179 -6.946266 29.280232 -0.274329 -4.119439 2.730631 0.191050 -0.212120 0.013570 -2.709127 -3.198865 -8.129262 1.753215 0.587583 28.243246 1.280528 2.017988 3.557788 1.262390 -2.136318 -8.508088 -11.604799 6.447747 62.136505 -0.969970 2.477710 -4.982050 -23.794095 -3.177481 0.389003 -34.248769 1.434658 -7.251976 -59.115019 -23.914963 8.717672 -3.448442 3.247792 0.426950 -0.168610 0.247640 0.021250 21.869631 6.525460 4.479220 40.501869 -5.421829 -13.004193 54.977058 40.102526 13.533696 2.368621 -1.631242 -0.036580 0.139700 -0.116460 -0.182490 
0.165410 17.153370 -2.914210 -2.657884 1.637220 -0.017545 -15.368082 13.851644 3.764335 13.529449 -3.965587 -26.289118 -5.692269 10.275985 35.968136 0.040925 6.723460 1.866195 0.435050 0.361460 0.430670 17.865055 -10.768269 2.313508 -17.526179 1.947613 -22.742823 4.980525 -7.382681 30.689638 -0.328680 -4.349600 2.631913 0.209390 -0.242150 0.016600 -2.756678 -3.259489 -8.089013 2.329466 0.002145 28.292570 0.852283 1.492510 3.875011 1.318314 -2.440770 -8.422203 -12.653903 7.440322 63.379958 -1.764560 3.077290 -5.441620 -24.001956 -2.847064 0.152475 -34.363327 1.052080 -7.139847 -57.898629 -23.341256 8.208818 -3.437140 3.234836 0.439940 -0.182910 0.271940 0.017300 21.935497 6.101596 4.257905 41.333257 -5.107833 -13.169284 55.055284 40.961398 13.976918 2.371774 -1.632867 -0.027960 0.138370 -0.130710 -0.192450 
0.122600 17.164720 -2.880500 -2.648436 0.623623 -0.655942 -15.334688 13.908017 3.666529 14.205766 -3.554538 -24.811811 -6.288996 10.522075 35.342308 0.046119 6.765360 1.852704 0.440100 0.363150 0.443060 17.891762 -10.789646 2.316213 -17.308637 1.988934 -22.598795 5.008500 -7.581776 31.554835 -0.353516 -4.482813 2.584516 0.212800 -0.248880 0.016330 -2.818135 -3.265746 -8.040460 3.199741 -0.547961 27.817316 0.506620 1.042260 4.320951 1.366913 -2.738565 -8.395082 -13.746825 8.300339 64.701895 -2.603610 3.408100 -4.880040 -24.236930 -2.450821 0.012150 -34.883066 0.957597 -7.123571 -56.659247 -23.544245 8.129360 -3.440736 3.220219 0.439460 -0.180770 0.274280 0.016170 22.043508 5.630586 4.100984 42.150705 -5.029436 -13.366206 55.184639 42.221034 14.627214 2.371603 -1.639839 -0.028650 0.138540 -0.134280 -0.197420 
0.087910 17.170920 -2.838750 -2.577672 -0.425575 -1.312218 -15.292857 13.930497 3.587752 14.813074 -3.218061 -23.399588 -6.956011 10.836707 34.934029 0.060830 6.852771 1.819128 0.449340 0.367170 0.457060 17.929223 -10.827856 2.298632 -17.316672 1.901778 -22.202312 5.125919 -7.756793 31.868116 -0.373305 -4.567037 2.549212 0.214830 -0.261430 0.022920 -2.908031 -3.211571 -7.986936 4.285352 -1.080802 27.038241 0.081081 0.603971 4.882626 1.419855 -3.093902 -8.447237 -14.967480 9.081924 65.814888 -3.411760 3.559870 -4.573250 -24.076179 -2.014268 -0.049655 -35.552982 0.845928 -7.079108 -56.035028 -24.020936 8.304746 -3.442205 3.216401 0.442670 -0.182940 0.280840 0.012180 21.734610 5.172080 3.999861 43.083458 -4.832414 -13.484948 55.077088 43.285008 15.129230 2.373256 -1.644273 -0.022710 0.131590 -0.136110 -0.202370 
0.048470 17.180490 -2.798290 -2.328367 -1.725668 -2.037419 -15.277933 13.970876 3.548111 15.465521 -2.892202 -22.009822 -7.871123 11.346048 34.736049 0.093022 7.022712 1.754585 0.462080 0.378700 0.464420 17.943973 -10.845821 2.242939 -17.120165 1.831439 -21.780258 4.661705 -7.689861 32.301443 -0.386975 -4.601711 2.531401 0.223560 -0.276040 0.024590 -2.922504 -3.249429 -7.930122 4.725956 -1.403433 26.346565 0.072341 0.273433 5.296711 1.338106 -3.621181 -8.554177 -16.690323 10.296601 66.482894 -3.854270 3.764520 -4.403190 -23.924745 -1.665222 -0.014504 -36.301928 0.832350 -7.047237 -55.276509 -24.404557 8.363168 -3.436289 3.219796 0.447510 -0.190680 0.286240 0.010660 21.727075 5.063375 3.938099 43.273818 -4.457427 -13.318749 55.349717 43.769711 15.553443 2.375199 -1.655612 -0.018180 0.123670 -0.139000 -0.206130 
0.013960 17.183630 -2.762960 -2.087741 -2.914656 -2.661558 -15.251849 13.987042 3.520462 15.818391 -2.719890 -21.017342 -8.400696 11.765547 35.031523 0.137975 7.198601 1.695660 0.479480 0.399740 0.467700 17.974670 -10.873789 2.181938 -17.013280 1.695275 -21.445605 4.097832 -7.575086 32.599906 -0.397094 -4.613195 2.526607 0.235130 -0.282260 0.024220 -2.980273 -3.250841 -7.865661 5.431100 -1.873406 25.568329 -0.016816 -0.208672 5.743253 1.149253 -4.302966 -8.687125 -18.730986 11.703234 66.372629 -3.966260 3.945750 -4.396050 -23.305620 -1.227912 0.100531 -36.969681 0.828628 -6.971527 -55.923052 -24.917778 8.769137 -3.426351 3.238461 0.445780 -0.197910 0.290700 0.019420 21.438331 4.926130 3.829387 43.455672 -3.832580 -13.003991 55.800299 44.108476 16.013437 2.382223 -1.670201 -0.010660 0.121670 -0.148760 -0.201070 
-0.017510 17.180420 -2.725140 -1.902551 -4.018722 -3.368464 -15.215146 14.003746 3.479381 15.981448 -2.578394 -20.024399 -8.659326 12.093153 35.492107 0.170539 7.362850 1.641632 0.489800 0.410990 0.473960 18.014902 -10.924185 2.121552 -16.859634 1.571004 -21.123331 3.353027 -7.462827 33.216106 -0.411469 -4.661419 2.508304 0.243880 -0.288900 0.023780 -3.069281 -3.213796 -7.791041 6.409466 -2.343843 24.829162 -0.244639 -0.660728 6.199967 1.013768 -4.931964 -8.799303 -20.631995 12.879989 66.004063 -4.494650 4.173620 -4.634830 -22.669251 -0.861975 0.187213 -37.305375 0.675508 -6.776510 -57.033302 -25.434444 9.316150 -3.423389 3.249672 0.448270 -0.202300 0.293950 0.020210 21.004563 4.794283 3.736387 43.765560 -3.120646 -12.660427 56.334690 44.271002 16.418965 2.386806 -1.675769 -0.009200 0.123870 -0.150900 -0.202340 
-0.054290 17.169650 -2.682260 -1.669324 -5.026169 -3.907597 -15.201598 14.024036 3.458969 16.112071 -2.469376 -19.313249 -8.878338 12.469652 36.119048 0.213327 7.558618 1.579703 0.474910 0.393020 0.463310 18.036098 -10.935886 2.071841 -16.689288 1.520143 -20.945632 2.716863 -7.377671 33.888132 -0.412524 -4.727603 2.488757 0.236660 -0.282690 0.022630 -3.101203 -3.246356 -7.738125 6.979761 -2.743934 23.915364 -0.178980 -1.129957 6.422891 0.908168 -5.354129 -8.950937 -21.916583 13.873864 65.542923 -5.085940 4.634270 -4.115370 -22.204063 -0.692686 0.389171 -37.680354 0.816584 -6.594642 -57.328744 -24.762627 9.023879 -3.434584 3.254992 0.439850 -0.192980 0.281050 0.014730 20.758212 4.766575 3.691926 43.883500 -2.553131 -12.298918 56.817496 44.661526 16.939614 2.392252 -1.682888 -0.014070 0.118650 -0.140910 -0.204000 
